<?xml version="1.0" encoding="UTF-8" standalone="no"?>
<!-- Created with Inkscape (http://www.inkscape.org/) -->

<svg
   xmlns:dc="http://purl.org/dc/elements/1.1/"
   xmlns:cc="http://creativecommons.org/ns#"
   xmlns:rdf="http://www.w3.org/1999/02/22-rdf-syntax-ns#"
   xmlns:svg="http://www.w3.org/2000/svg"
   xmlns="http://www.w3.org/2000/svg"
   xmlns:sodipodi="http://sodipodi.sourceforge.net/DTD/sodipodi-0.dtd"
   xmlns:inkscape="http://www.inkscape.org/namespaces/inkscape"
   version="1.0"
   x="0.0000000"
   y="0.0000000"
   width="7"
   height="19"
   id="svg1361"
   inkscape:version="0.48.5 r10040"
   sodipodi:docname="sharp.svg">
  <metadata
     id="metadata9">
    <rdf:RDF>
      <cc:Work
         rdf:about="">
        <dc:format>image/svg+xml</dc:format>
        <dc:type
           rdf:resource="http://purl.org/dc/dcmitype/StillImage" />
      </cc:Work>
    </rdf:RDF>
  </metadata>
  <sodipodi:namedview
     pagecolor="#ffffff"
     bordercolor="#666666"
     borderopacity="1"
     objecttolerance="10"
     gridtolerance="10"
     guidetolerance="10"
     inkscape:pageopacity="0"
     inkscape:pageshadow="2"
     inkscape:window-width="987"
     inkscape:window-height="587"
     id="namedview7"
     showgrid="true"
     inkscape:zoom="12.421053"
     inkscape:cx="3"
     inkscape:cy="9.5"
     inkscape:window-x="0"
     inkscape:window-y="0"
     inkscape:window-maximized="0"
     inkscape:current-layer="svg1361">
    <inkscape:grid
       type="xygrid"
       id="grid2986"
       empspacing="5"
       visible="true"
       enabled="true"
       snapvisiblegridlinesonly="true" />
  </sodipodi:namedview>
  <defs
     id="defs1363" />
  <g
     transform="translate(0,0.765)"
     id="layer1">
    <g
       transform="translate(-84.196,-436.068)"
       style="fill:#000000"
       id="g2103">
      <path
         d="m 86.102,447.457 0,-4.704 2,-0.552 0,4.68 -2,0.576 z m 3.938,-1.138 -1.375,0.394 0,-4.68 1.375,-0.384 0,-1.944 -1.375,0.384 0,-4.78177 -0.563,0 0,4.92677 -2,0.575 0,-4.64977 -0.531,0 0,4.82677 -1.375,0.385 0,1.948 1.375,-0.384 0,4.671 -1.375,0.383 0,1.94 1.375,-0.384 0,4.75477 0.531,0 0,-4.92477 2,-0.55 0,4.62577 0.563,0 0,-4.79977 1.375,-0.385 0,-1.947 z"
         id="path2109"
         inkscape:connector-curvature="0" />
    </g>
  </g>
</svg>
