<?xml version="1.0" encoding="UTF-8" standalone="no"?>
<!-- Created with Inkscape (http://www.inkscape.org/) -->

<svg
   xmlns:dc="http://purl.org/dc/elements/1.1/"
   xmlns:cc="http://creativecommons.org/ns#"
   xmlns:rdf="http://www.w3.org/1999/02/22-rdf-syntax-ns#"
   xmlns:svg="http://www.w3.org/2000/svg"
   xmlns="http://www.w3.org/2000/svg"
   xmlns:sodipodi="http://sodipodi.sourceforge.net/DTD/sodipodi-0.dtd"
   xmlns:inkscape="http://www.inkscape.org/namespaces/inkscape"
   version="1.0"
   width="9.5341063"
   height="25.697763"
   id="svg2"
   sodipodi:version="0.32"
   inkscape:version="0.48.5 r10040"
   sodipodi:docname="Music_rests.svg"
   inkscape:output_extension="org.inkscape.output.svg.inkscape">
  <metadata
     id="metadata56">
    <rdf:RDF>
      <cc:Work
         rdf:about="">
        <dc:format>image/svg+xml</dc:format>
        <dc:type
           rdf:resource="http://purl.org/dc/dcmitype/StillImage" />
        <dc:title></dc:title>
      </cc:Work>
    </rdf:RDF>
  </metadata>
  <sodipodi:namedview
     inkscape:window-height="755"
     inkscape:window-width="1280"
     inkscape:pageshadow="2"
     inkscape:pageopacity="0.0"
     guidetolerance="10.0"
     gridtolerance="10.0"
     objecttolerance="10.0"
     borderopacity="1.0"
     bordercolor="#666666"
     pagecolor="#ffffff"
     id="base"
     showgrid="false"
     inkscape:zoom="21.324813"
     inkscape:cx="4.7670531"
     inkscape:cy="12.848882"
     inkscape:window-x="61"
     inkscape:window-y="25"
     inkscape:current-layer="svg2"
     inkscape:window-maximized="0"
     fit-margin-top="0"
     fit-margin-left="0"
     fit-margin-right="0"
     fit-margin-bottom="0" />
  <g
     id="g124"
     style="fill:#000000;fill-rule:evenodd;stroke:#000000;stroke-width:0;stroke-linecap:butt;stroke-linejoin:round;stroke-miterlimit:10"
     transform="matrix(1.8,0,0,1.8,-918.98137,-127.77586)">
    <path
       id="path126"
       style="fill:#000000;stroke:#000000"
       d="m 512.254,71.019 c -0.137,0.058 -0.219,0.258 -0.156,0.398 0.019,0.02 0.218,0.258 0.418,0.52 0.457,0.515 0.535,0.637 0.636,0.875 0.399,0.816 0.18,1.855 -0.519,2.512 -0.059,0.078 -0.317,0.296 -0.559,0.476 -0.695,0.598 -1.015,0.938 -1.133,1.238 -0.043,0.079 -0.043,0.157 -0.043,0.278 -0.019,0.277 0,0.301 0.821,1.254 1.113,1.336 1.91,2.273 1.972,2.332 l 0.059,0.058 -0.078,-0.039 c -1.098,-0.457 -2.332,-0.676 -2.75,-0.476 -0.141,0.058 -0.223,0.14 -0.281,0.277 -0.161,0.34 -0.118,0.84 0.121,1.574 0.218,0.66 0.656,1.535 1.093,2.192 0.18,0.281 0.52,0.718 0.559,0.738 0.059,0.059 0.141,0.039 0.199,0 0.059,-0.078 0.059,-0.141 -0.058,-0.277 -0.418,-0.598 -0.617,-1.836 -0.379,-2.493 0.097,-0.296 0.219,-0.457 0.437,-0.558 0.578,-0.258 1.856,0.062 2.391,0.597 0.039,0.04 0.121,0.122 0.16,0.141 0.141,0.059 0.34,-0.019 0.399,-0.16 0.082,-0.141 0.039,-0.238 -0.141,-0.457 -0.336,-0.399 -1.352,-1.594 -1.492,-1.774 -0.36,-0.418 -0.52,-0.816 -0.559,-1.316 -0.019,-0.637 0.238,-1.312 0.719,-1.754 0.058,-0.078 0.316,-0.297 0.555,-0.476 0.738,-0.618 1.039,-0.957 1.156,-1.278 0.082,-0.258 0.043,-0.496 -0.137,-0.715 -0.062,-0.058 -0.758,-0.918 -1.574,-1.894 -1.117,-1.313 -1.516,-1.793 -1.574,-1.813 -0.082,-0.019 -0.18,-0.019 -0.262,0.02 z"
       inkscape:connector-curvature="0" />
  </g>
  <defs
     id="defs19">
    <inkscape:perspective
       sodipodi:type="inkscape:persp3d"
       inkscape:vp_x="0 : 30.096807 : 1"
       inkscape:vp_y="0 : 1000 : 0"
       inkscape:vp_z="574.5 : 30.096807 : 1"
       inkscape:persp3d-origin="287.25 : 20.064538 : 1"
       id="perspective58" />
    <inkscape:perspective
       id="perspective2543"
       inkscape:persp3d-origin="372.04724 : 350.78739 : 1"
       inkscape:vp_z="744.09448 : 526.18109 : 1"
       inkscape:vp_y="0 : 1000 : 0"
       inkscape:vp_x="0 : 526.18109 : 1"
       sodipodi:type="inkscape:persp3d" />
  </defs>
</svg>
