<?xml version="1.0" encoding="UTF-8" standalone="no"?>
<!-- Created with Inkscape (http://www.inkscape.org/) -->

<svg
   xmlns:dc="http://purl.org/dc/elements/1.1/"
   xmlns:cc="http://creativecommons.org/ns#"
   xmlns:rdf="http://www.w3.org/1999/02/22-rdf-syntax-ns#"
   xmlns:svg="http://www.w3.org/2000/svg"
   xmlns="http://www.w3.org/2000/svg"
   xmlns:sodipodi="http://sodipodi.sourceforge.net/DTD/sodipodi-0.dtd"
   xmlns:inkscape="http://www.inkscape.org/namespaces/inkscape"
   width="19.5"
   height="11.003288"
   id="svg3040"
   version="1.1"
   inkscape:version="0.48.5 r10040"
   sodipodi:docname="w1note.svg">
  <defs
     id="defs3042" />
  <sodipodi:namedview
     id="base"
     pagecolor="#ffffff"
     bordercolor="#666666"
     borderopacity="1.0"
     inkscape:pageopacity="0.0"
     inkscape:pageshadow="2"
     inkscape:zoom="7.9180417"
     inkscape:cx="14.033611"
     inkscape:cy="13.089475"
     inkscape:current-layer="layer1"
     showgrid="true"
     inkscape:grid-bbox="true"
     inkscape:document-units="px"
     inkscape:window-width="1119"
     inkscape:window-height="739"
     inkscape:window-x="79"
     inkscape:window-y="97"
     inkscape:window-maximized="0"
     fit-margin-top="0"
     fit-margin-left="0"
     fit-margin-right="0"
     fit-margin-bottom="0">
    <inkscape:grid
       type="xygrid"
       id="grid2989"
       empspacing="5"
       visible="true"
       enabled="true"
       snapvisiblegridlinesonly="true"
       originx="-0.96638884px"
       originy="-1.910525px" />
  </sodipodi:namedview>
  <metadata
     id="metadata3045">
    <rdf:RDF>
      <cc:Work
         rdf:about="">
        <dc:format>image/svg+xml</dc:format>
        <dc:type
           rdf:resource="http://purl.org/dc/dcmitype/StillImage" />
        <dc:title />
      </cc:Work>
    </rdf:RDF>
  </metadata>
  <g
     id="layer1"
     inkscape:label="Layer 1"
     inkscape:groupmode="layer"
     transform="translate(-0.96638884,-2.0861865)">
    <path
       inkscape:connector-curvature="0"
       d="m 10.091389,2.0894754 c -5.0907201,0.1822 -9.12500016,2.5826 -9.12500016,5.5 0,3.0359996 4.36800006,5.4999996 9.75000016,5.4999996 5.381999,0 9.749999,-2.464 9.749999,-5.4999996 0,-3.036 -4.368,-5.5 -9.749999,-5.5 -0.21023,0 -0.41806,-0.0074 -0.625,0 z m -1.6250001,1.0625 c 1.3579,-0.139 3.0679801,0.4906 4.4999991,1.7812 2.14502,1.9332 2.87122,4.6438998 1.625,6.0624996 l -0.03125,0.0313 c -1.27086,1.4101 -4.062299,0.9748 -6.2187491,-0.9688 -2.15645,-1.9434998 -2.86461,-4.6835996 -1.59375,-6.0936996 0.42693,-0.4737 1.03181,-0.7422 1.71875,-0.8125 z"
       style="opacity:0.9;fill:#000000;fill-opacity:1;fill-rule:nonzero;stroke:none"
       id="path3937" />
  </g>
</svg>
