<?xml version="1.0" encoding="UTF-8" standalone="no"?>
<svg
   xmlns:dc="http://purl.org/dc/elements/1.1/"
   xmlns:cc="http://creativecommons.org/ns#"
   xmlns:rdf="http://www.w3.org/1999/02/22-rdf-syntax-ns#"
   xmlns:svg="http://www.w3.org/2000/svg"
   xmlns="http://www.w3.org/2000/svg"
   xmlns:sodipodi="http://sodipodi.sourceforge.net/DTD/sodipodi-0.dtd"
   xmlns:inkscape="http://www.inkscape.org/namespaces/inkscape"
   width="22.974361"
   height="24.986055"
   id="svg2"
   version="1.1"
   inkscape:version="0.48.5 r10040"
   sodipodi:docname="coda.svg">
  <metadata
     id="metadata16">
    <rdf:RDF>
      <cc:Work
         rdf:about="">
        <dc:format>image/svg+xml</dc:format>
        <dc:type
           rdf:resource="http://purl.org/dc/dcmitype/StillImage" />
      </cc:Work>
    </rdf:RDF>
  </metadata>
  <defs
     id="defs14" />
  <sodipodi:namedview
     pagecolor="#ffffff"
     bordercolor="#666666"
     borderopacity="1"
     objecttolerance="10"
     gridtolerance="10"
     guidetolerance="10"
     inkscape:pageopacity="0"
     inkscape:pageshadow="2"
     inkscape:window-width="640"
     inkscape:window-height="480"
     id="namedview12"
     showgrid="false"
     fit-margin-top="0"
     fit-margin-left="0"
     fit-margin-right="0"
     fit-margin-bottom="0"
     inkscape:zoom="9.0769231"
     inkscape:cx="11.487061"
     inkscape:cy="12.4946"
     inkscape:window-x="0"
     inkscape:window-y="0"
     inkscape:window-maximized="0"
     inkscape:current-layer="svg2" />
  <path
     d="m 2.45e-4,12.707055 0.035156,-0.699 4.01001,-0.0381 c 0.28882,-4.19408 3.11401,-7.27611 6.98295,-8.00804 L 11.036361,0 c 0.3211,0 0.21,0.005859 0.554,0.005859 l -0.0171,12.570996 z m 11.023216,-7.89016 c -2.70803,0.854 -3.09206,5.41306 -3.14114,7.07106 l 3.03904,0.0181 z"
     id="path4"
     inkscape:connector-curvature="0" />
  <path
     d="m 22.974361,12.707055 c -0.0151,-1.532 -0.0352,0.708 -0.0352,-0.699 l -4.0109,-0.0381 c -0.2889,-4.19408 -3.1128,-7.27611 -6.982,-8.00804 L 11.937261,0 l -0.553,0.005859 0.0171,12.570996 c 3.98,0 7.4939,0.1302 11.573,0.1302 z m -11.0229,-7.89016 c 2.708,0.854 3.0908,5.41306 3.1408,7.07106 l -3.039,0.0181 z"
     id="path6"
     inkscape:connector-curvature="0" />
  <path
     d="m 0,12.279055 c 0.015137,1.532 0.035157,-0.708 0.035157,0.699 l 4.010014,0.0381 c 0.28881,4.1941 3.11401,7.2761 6.98289,8.008 l 0.0081,3.9619 0.5539,-0.0058 -0.0171,-12.5711 z m 11.023161,7.8901 c -2.70797,-0.854 -3.09201,-5.4131 -3.14108,-7.071 l 3.03908,-0.0181 z"
     id="path8"
     inkscape:connector-curvature="0" />
  <path
     d="m 22.974161,12.279055 -0.0352,0.699 -4.011,0.0381 c -0.2888,4.1941 -3.1128,7.2761 -6.9819,8.008 l -0.009,3.9619 -0.553,-0.0058 0.0171,-12.5711 c 3.9799,0 7.4939,-0.1301 11.573,-0.1301 z m -11.023,7.8901 c 2.708,-0.854 3.0908,-5.4131 3.1409,-7.071 l -3.0391,-0.0181 z"
     id="path10"
     inkscape:connector-curvature="0" />
</svg>
