<?xml version="1.0" encoding="UTF-8" standalone="no"?>
<svg
   xmlns:dc="http://purl.org/dc/elements/1.1/"
   xmlns:cc="http://creativecommons.org/ns#"
   xmlns:rdf="http://www.w3.org/1999/02/22-rdf-syntax-ns#"
   xmlns:svg="http://www.w3.org/2000/svg"
   xmlns="http://www.w3.org/2000/svg"
   xmlns:sodipodi="http://sodipodi.sourceforge.net/DTD/sodipodi-0.dtd"
   xmlns:inkscape="http://www.inkscape.org/namespaces/inkscape"
   version="1.2"
   width="3.5145974mm"
   height="5.2718959mm"
   viewBox="0 0 2 2.9999999"
   id="svg2"
   inkscape:version="0.91 r13725"
   sodipodi:docname="signe.svg">
  <title
     id="title3333">signe</title>
  <metadata
     id="metadata52">
    <rdf:RDF>
      <cc:Work
         rdf:about="">
        <dc:format>image/svg+xml</dc:format>
        <dc:type
           rdf:resource="http://purl.org/dc/dcmitype/StillImage" />
        <dc:title>signe</dc:title>
        <cc:license
           rdf:resource="https://creativecommons.org/publicdomain/mark/1.0/" />
      </cc:Work>
      <cc:License
         rdf:about="https://creativecommons.org/publicdomain/mark/1.0/">
        <cc:permits
           rdf:resource="http://creativecommons.org/ns#Reproduction" />
        <cc:permits
           rdf:resource="http://creativecommons.org/ns#Distribution" />
        <cc:permits
           rdf:resource="http://creativecommons.org/ns#DerivativeWorks" />
      </cc:License>
    </rdf:RDF>
  </metadata>
  <path
     transform="matrix(0.004,0,0,-0.004,1,1.5)"
     d="m -202,-50 c 0,17 13,30 30,30 17,0 30,-13 30,-30 0,-17 -13,-30 -30,-30 -17,0 -30,13 -30,30 z M 142,50 c 0,17 13,30 30,30 17,0 30,-13 30,-30 0,-17 -13,-30 -30,-30 -17,0 -30,13 -30,30 z M -35,-227 c 0,34 17,59 54,59 39,0 58,-31 58,-62 0,-27 -15,-55 -40,-64 8,-29 36,-51 69,-51 38,0 66,35 66,75 0,99 -83,168 -172,219 l -190,-324 -60,0 204,349 c -104,58 -204,132 -204,245 0,86 62,156 144,156 79,0 141,-68 141,-148 0,-34 -17,-59 -54,-59 -39,0 -58,31 -58,62 0,27 15,55 40,64 -8,29 -36,51 -69,51 -38,0 -66,-35 -66,-75 0,-99 83,-168 172,-219 l 190,324 60,0 L 46,26 c 104,-58 204,-132 204,-245 0,-86 -62,-156 -144,-156 -79,0 -141,68 -141,148 z"
     id="path28"
     inkscape:connector-curvature="0"
     style="fill:currentColor" />
</svg>
