<?xml version="1.0" encoding="UTF-8" standalone="no"?>
<svg
   xmlns:dc="http://purl.org/dc/elements/1.1/"
   xmlns:cc="http://creativecommons.org/ns#"
   xmlns:rdf="http://www.w3.org/1999/02/22-rdf-syntax-ns#"
   xmlns:svg="http://www.w3.org/2000/svg"
   xmlns="http://www.w3.org/2000/svg"
   xmlns:sodipodi="http://sodipodi.sourceforge.net/DTD/sodipodi-0.dtd"
   xmlns:inkscape="http://www.inkscape.org/namespaces/inkscape"
   version="1.0"
   width="14.565798"
   height="11.435708"
   id="svg2"
   inkscape:version="0.48.5 r10040"
   sodipodi:docname="wnote.svg">
  <metadata
     id="metadata16">
    <rdf:RDF>
      <cc:Work
         rdf:about="">
        <dc:format>image/svg+xml</dc:format>
        <dc:type
           rdf:resource="http://purl.org/dc/dcmitype/StillImage" />
        <dc:title />
      </cc:Work>
    </rdf:RDF>
  </metadata>
  <defs
     id="defs14" />
  <sodipodi:namedview
     pagecolor="#ffffff"
     bordercolor="#666666"
     borderopacity="1"
     objecttolerance="10"
     gridtolerance="10"
     guidetolerance="10"
     inkscape:pageopacity="0"
     inkscape:pageshadow="2"
     inkscape:window-width="1280"
     inkscape:window-height="751"
     id="namedview12"
     showgrid="true"
     inkscape:zoom="2.36"
     inkscape:cx="37.516052"
     inkscape:cy="12.281981"
     inkscape:window-x="0"
     inkscape:window-y="0"
     inkscape:window-maximized="1"
     inkscape:current-layer="svg2"
     fit-margin-top="0"
     fit-margin-left="0"
     fit-margin-right="0"
     fit-margin-bottom="0">
    <inkscape:grid
       type="xygrid"
       id="grid3055"
       empspacing="5"
       visible="true"
       enabled="true"
       snapvisiblegridlinesonly="true"
       originx="-5.6694091px"
       originy="-4.9348058px" />
  </sodipodi:namedview>
  <path
     inkscape:connector-curvature="0"
     id="path6"
     style="opacity:0.9;fill:#000000;fill-opacity:1;fill-rule:evenodd;stroke:none"
     d="m 10.145751,10.186984 c 3.39584,-1.8199703 5.20528,-5.1145503 4.09222,-7.5929603 C 13.050711,-0.04961635 8.9709609,-0.79569635 5.1313909,0.92865365 1.2918309,2.6530137 -0.86076913,6.1980537 0.32649087,8.8416837 1.5137609,11.485324 5.5935009,12.231404 9.4330709,10.507054 c 0.23997,-0.10777 0.48628,-0.19874 0.7126801,-0.32007 z M 9.0360209,7.9448237 c -0.24123,0.12433 -0.48548,0.21803 -0.74119,0.33287 -3.27307,1.46994 -6.43421,1.53907 -7.05611,0.15431 -0.62190003,-1.38476 1.52978,-3.70162 4.80285,-5.17157 3.27308,-1.46994 6.4342201,-1.53907 7.0561101,-0.15431 0.57332,1.27658 -1.21513,3.37161 -4.0616601,4.8387 z" />
</svg>
